<?xml version="1.0" standalone="no"?>
<!DOCTYPE svg PUBLIC "-//W3C//DTD SVG 20010904//EN"
 "http://www.w3.org/TR/2001/REC-SVG-20010904/DTD/svg10.dtd">
<svg version="1.0" xmlns="http://www.w3.org/2000/svg"
 width="260.000000pt" height="260.000000pt" viewBox="0 0 260.000000 260.000000"
 preserveAspectRatio="xMidYMid meet">
<metadata>
Created by potrace 1.14, written by Peter Selinger 2001-2017
</metadata>
<g transform="translate(0.000000,260.000000) scale(0.100000,-0.100000)"
fill="#000000" stroke="none">
<path d="M1407 1890 c-3 -19 -11 -80 -18 -135 -6 -55 -15 -121 -19 -148 -4
-26 -4 -50 0 -52 8 -5 22 75 41 238 11 96 9 164 -4 97z"/>
<path d="M1201 1853 c4 -32 13 -113 20 -180 7 -68 16 -123 21 -123 11 0 10 25
-6 138 -8 53 -17 125 -21 160 -4 34 -10 62 -14 62 -4 0 -4 -26 0 -57z"/>
<path d="M1611 1829 c-5 -13 -36 -90 -69 -171 -33 -82 -57 -150 -53 -153 10
-5 146 334 137 342 -3 3 -10 -5 -15 -18z"/>
<path d="M1000 1817 c0 -8 110 -298 120 -316 4 -7 10 -10 13 -5 2 5 -24 79
-60 164 -60 146 -73 172 -73 157z"/>
<path d="M805 1720 c27 -49 230 -318 237 -314 5 3 5 11 0 17 -211 278 -258
336 -237 297z"/>
<path d="M1763 1668 c-27 -35 -60 -79 -73 -98 -13 -19 -27 -37 -30 -40 -24
-21 -81 -102 -78 -111 3 -9 196 239 231 298 20 32 -5 8 -50 -49z"/>
<path d="M1303 1600 c0 -25 2 -35 4 -22 2 12 2 32 0 45 -2 12 -4 2 -4 -23z"/>
<path d="M1153 1605 c3 -11 9 -32 13 -47 3 -16 10 -28 14 -28 9 0 -11 75 -24
87 -5 4 -6 -1 -3 -12z"/>
<path d="M1432 1580 c-5 -22 -6 -40 -2 -40 9 0 24 69 17 76 -2 3 -9 -13 -15
-36z"/>
<path d="M680 1531 c19 -18 60 -51 90 -74 30 -23 90 -70 133 -104 42 -35 80
-63 82 -63 21 0 -17 34 -152 135 -180 135 -202 150 -153 106z"/>
<path d="M1020 1554 c0 -16 51 -106 57 -100 3 3 -9 29 -26 58 -17 29 -31 48
-31 42z"/>
<path d="M1807 1445 c-158 -119 -184 -141 -176 -150 3 -3 62 39 131 92 179
140 204 161 198 166 -3 2 -72 -46 -153 -108z"/>
<path d="M1546 1495 c-9 -14 -13 -25 -8 -25 5 0 14 11 20 25 6 14 10 25 8 25
-2 0 -11 -11 -20 -25z"/>
<path d="M1164 1466 c-33 -15 -50 -33 -40 -43 3 -3 29 1 58 11 49 16 53 16 90
-3 37 -18 39 -18 78 1 39 19 42 20 91 3 60 -19 87 -7 45 20 -37 25 -96 30
-139 12 -32 -14 -40 -14 -64 -2 -35 18 -78 18 -119 1z"/>
<path d="M1650 1415 c-24 -24 -42 -47 -39 -50 3 -2 27 18 54 45 27 28 45 50
39 50 -5 0 -30 -20 -54 -45z"/>
<path d="M950 1395 c29 -30 56 -52 59 -50 6 7 -90 105 -103 105 -6 0 14 -25
44 -55z"/>
<path d="M1070 1374 c-27 -54 -23 -121 7 -163 21 -27 222 -190 236 -191 15 0
208 153 233 185 44 58 44 135 1 189 -34 42 -51 26 -27 -27 11 -23 19 -53 19
-67 0 -18 -4 -14 -14 18 -17 56 -41 92 -61 92 -16 0 -16 -11 2 -55 5 -13 -1
-10 -18 10 -21 23 -29 27 -39 18 -9 -9 -7 -18 10 -41 29 -41 27 -54 -3 -17
-34 42 -53 23 -27 -28 10 -20 20 -35 23 -34 2 1 -15 -16 -39 -39 -23 -22 -45
-53 -49 -69 l-7 -27 -14 33 c-8 19 -33 51 -56 72 -23 21 -37 36 -31 33 13 -6
41 70 30 82 -4 4 -19 -6 -32 -23 -13 -16 -24 -25 -24 -19 0 6 10 23 21 38 16
20 19 30 11 38 -16 16 -55 -20 -47 -41 5 -13 4 -14 -7 -3 -10 10 -10 17 0 32
16 26 15 40 -3 40 -19 0 -43 -38 -60 -92 -10 -32 -14 -36 -14 -18 0 14 8 44
18 67 11 23 17 44 13 47 -15 15 -32 2 -52 -40z m85 -74 c3 -5 1 -10 -4 -10 -6
0 -11 5 -11 10 0 6 2 10 4 10 3 0 8 -4 11 -10z m302 -82 c-3 -8 -6 -5 -6 6 -1
11 2 17 5 13 3 -3 4 -12 1 -19z m58 -18 c3 -5 1 -10 -4 -10 -6 0 -11 5 -11 10
0 6 2 10 4 10 3 0 8 -4 11 -10z"/>
<path d="M555 1342 c10 -10 130 -61 300 -126 50 -19 98 -37 109 -42 13 -5 17
-3 14 6 -2 7 -31 23 -63 35 -68 25 -320 119 -350 131 -14 5 -17 4 -10 -4z"/>
<path d="M1855 1273 c-110 -41 -202 -77 -204 -78 -1 -2 -1 -8 0 -13 4 -10 395
140 413 158 18 18 -5 10 -209 -67z"/>
<path d="M1710 1293 c-77 -43 -75 -41 -67 -49 6 -6 147 72 147 81 0 10 -18 3
-80 -32z"/>
<path d="M825 1313 c18 -19 155 -92 155 -83 0 5 -28 25 -62 44 -70 39 -109 55
-93 39z"/>
<path d="M1273 1294 c-3 -9 4 -25 19 -40 l24 -25 23 25 c14 15 21 32 18 40 -9
22 -75 22 -84 0z"/>
<path d="M1728 1161 c-75 -17 -97 -26 -87 -36 5 -5 188 40 196 49 10 10 -28 5
-109 -13z"/>
<path d="M790 1159 c35 -14 194 -49 199 -43 9 9 -8 14 -103 34 -106 22 -135
24 -96 9z"/>
<path d="M510 1113 c0 -5 98 -17 218 -27 119 -9 229 -19 245 -21 27 -4 39 12
15 20 -7 2 -98 9 -203 15 -104 6 -209 13 -232 16 -24 4 -43 2 -43 -3z"/>
<path d="M1860 1103 c-187 -12 -247 -22 -229 -36 4 -4 241 13 402 28 42 4 77
11 77 16 0 5 -8 8 -17 8 -10 -1 -115 -8 -233 -16z"/>
<path d="M742 980 c-30 -13 -56 -74 -42 -100 21 -39 89 -36 109 6 10 23 9 24
-20 24 -25 0 -29 -3 -20 -13 13 -16 5 -27 -21 -27 -13 0 -18 8 -18 31 0 17 5
39 10 50 14 26 49 24 59 -3 l8 -23 7 23 c5 13 6 25 4 27 -10 10 -56 13 -76 5z"/>
<path d="M1187 961 c-14 -17 -23 -33 -18 -35 11 -7 2 -56 -10 -56 -5 0 -9 5
-9 12 0 9 -3 9 -12 0 -17 -17 -38 -15 -38 3 0 10 10 15 30 15 33 0 38 11 14
34 -19 20 -24 20 -52 0 -32 -22 -30 -72 3 -80 15 -4 32 -1 40 6 10 9 15 9 15
1 0 -6 13 -11 30 -11 27 0 29 2 24 29 -5 23 -2 32 16 41 22 12 23 11 17 -18
-8 -41 5 -49 83 -50 l65 -1 2 69 c3 65 1 70 -18 70 -16 0 -19 -4 -15 -17 11
-27 -4 -103 -20 -103 -11 0 -13 9 -8 42 6 37 5 41 -10 35 -10 -4 -20 -7 -22
-7 -3 0 -3 -4 1 -10 9 -15 -6 -60 -20 -60 -9 0 -12 11 -8 40 l6 40 -32 -6
c-20 -4 -31 -3 -31 5 0 7 8 11 18 9 10 -2 17 3 17 12 0 26 -30 22 -58 -9z
m-57 -41 c0 -5 -7 -10 -16 -10 -8 0 -12 5 -9 10 3 6 10 10 16 10 5 0 9 -4 9
-10z"/>
<path d="M1473 936 c-1 -27 -7 -54 -13 -60 -17 -17 -11 -26 20 -26 27 0 29 2
24 30 -6 26 -4 30 15 30 14 0 21 -6 21 -20 0 -11 -4 -20 -10 -20 -5 0 -10 -4
-10 -10 0 -5 14 -10 31 -10 24 0 29 3 25 18 -5 16 4 69 18 102 5 12 0 15 -21
14 -24 -1 -28 -4 -25 -27 3 -22 -1 -27 -17 -27 -23 0 -30 35 -8 43 6 2 -2 6
-18 8 -30 5 -30 4 -32 -45z"/>
<path d="M1029 954 c-9 -11 -20 -36 -23 -57 -6 -29 -4 -39 9 -43 10 -4 24 1
33 11 16 17 16 17 -2 11 -14 -5 -17 -2 -12 10 3 8 6 22 6 30 0 9 4 13 9 9 5
-3 12 -1 16 5 3 5 2 10 -4 10 -5 0 -11 7 -13 16 -3 14 -5 14 -19 -2z"/>
<path d="M1892 948 c-22 -45 -25 -87 -7 -94 10 -4 23 1 33 11 16 17 16 17 -2
11 -14 -5 -17 -2 -12 10 3 8 6 22 6 30 0 9 4 13 9 9 5 -3 12 -1 16 5 3 5 1 10
-4 10 -6 0 -11 7 -11 15 0 22 -15 18 -28 -7z"/>
<path d="M845 942 c-6 -4 -11 -20 -13 -37 -2 -16 -8 -32 -13 -33 -17 -6 2 -22
26 -22 20 0 23 5 21 33 -1 26 2 31 17 29 13 -2 18 2 15 14 -3 18 -36 28 -53
16z"/>
<path d="M928 939 c-22 -12 -23 -29 -3 -29 8 0 15 5 15 10 0 6 5 10 10 10 22
0 8 -19 -21 -29 -44 -15 -36 -45 13 -48 21 -1 39 1 42 5 2 4 1 25 -3 47 -7 42
-23 52 -53 34z m22 -53 c0 -3 -4 -8 -10 -11 -5 -3 -10 -1 -10 4 0 6 5 11 10
11 6 0 10 -2 10 -4z"/>
<path d="M1622 934 c-32 -22 -30 -72 3 -80 26 -6 55 9 55 29 0 7 -4 7 -12 -1
-17 -17 -38 -15 -38 3 0 10 10 15 30 15 35 0 41 23 11 40 -25 13 -22 13 -49
-6z m38 -14 c0 -5 -7 -10 -16 -10 -8 0 -12 5 -9 10 3 6 10 10 16 10 5 0 9 -4
9 -10z"/>
<path d="M1718 939 c-22 -12 -23 -29 -3 -29 8 0 15 5 15 10 0 6 5 10 10 10 22
0 8 -19 -21 -29 -21 -7 -30 -16 -27 -28 3 -15 15 -18 75 -20 l71 -3 -2 32 c-1
23 4 33 14 33 8 0 15 7 15 15 0 13 -10 15 -58 11 -9 -1 -12 -12 -9 -37 6 -49
-21 -42 -28 7 -5 36 -23 46 -52 28z m22 -53 c0 -3 -4 -8 -10 -11 -5 -3 -10 -1
-10 4 0 6 5 11 10 11 6 0 10 -2 10 -4z"/>
<path d="M725 790 c0 -31 4 -40 17 -40 12 0 15 5 11 17 -4 10 -2 14 4 10 6 -4
13 3 17 16 9 35 8 37 -21 37 -26 0 -28 -3 -28 -40z m45 26 c0 -3 -4 -8 -10
-11 -5 -3 -10 -1 -10 4 0 6 5 11 10 11 6 0 10 -2 10 -4z"/>
<path d="M1274 821 c3 -5 -1 -12 -10 -15 -24 -9 -14 -50 14 -54 20 -3 22 1 22
37 0 30 -4 41 -16 41 -8 0 -13 -4 -10 -9z m3 -53 c-3 -8 -6 -5 -6 6 -1 11 2
17 5 13 3 -3 4 -12 1 -19z"/>
<path d="M1619 823 c-5 -55 -3 -73 11 -73 12 0 15 9 12 40 -2 22 -8 40 -13 40
-5 0 -9 -3 -10 -7z"/>
<path d="M1517 813 c-13 -12 -7 -63 7 -63 9 0 13 10 12 29 -1 32 -9 45 -19 34z"/>
<path d="M854 795 c-9 -23 4 -47 23 -43 22 4 30 38 11 49 -19 13 -28 11 -34
-6z m23 -27 c-3 -7 -5 -2 -5 12 0 14 2 19 5 13 2 -7 2 -19 0 -25z"/>
<path d="M979 783 c5 -18 15 -29 29 -31 19 -3 22 1 22 27 0 36 -17 42 -23 9
l-4 -23 -2 23 c0 12 -7 22 -15 22 -11 0 -12 -7 -7 -27z"/>
<path d="M1112 779 c-1 -26 3 -29 29 -29 27 0 30 3 27 27 -2 22 -9 28 -29 30
-22 1 -26 -3 -27 -28z m38 -5 c0 -8 -4 -12 -10 -9 -5 3 -10 10 -10 16 0 5 5 9
10 9 6 0 10 -7 10 -16z"/>
<path d="M1387 803 c-4 -3 -7 -17 -7 -30 0 -18 5 -23 25 -23 20 0 24 4 21 23
-3 12 -5 25 -5 30 -1 9 -25 9 -34 0z"/>
<path d="M1724 796 c-9 -24 4 -48 23 -44 12 2 18 12 18 28 0 29 -32 41 -41 16z
m23 -28 c-3 -7 -5 -2 -5 12 0 14 2 19 5 13 2 -7 2 -19 0 -25z"/>
<path d="M1850 780 c0 -27 3 -30 30 -30 19 0 30 5 30 14 0 30 -13 46 -36 46
-20 0 -24 -5 -24 -30z m40 1 c0 -6 -4 -13 -10 -16 -5 -3 -10 1 -10 9 0 9 5 16
10 16 6 0 10 -4 10 -9z"/>
</g>
</svg>
